<?xml version="1.0" encoding="utf-8"?>
<!-- Generator: Adobe Illustrator 25.1.0, SVG Export Plug-In . SVG Version: 6.00 Build 0)  -->
<svg version="1.1" id="Calque_1" xmlns="http://www.w3.org/2000/svg" xmlns:xlink="http://www.w3.org/1999/xlink" x="0px" y="0px"
	 viewBox="0 0 438.07 108.19" style="enable-background:new 0 0 438.07 108.19;" xml:space="preserve">
<style type="text/css">
	.st0{fill:#FFFFFF;}
	.st1{fill:url(#SVGID_1_);}
	.st2{fill:url(#SVGID_2_);}
	.st3{fill:url(#SVGID_3_);}
	.st4{fill:url(#SVGID_4_);}
</style>
<path class="st0" d="M27.19,86.32c2.82-0.02,4.54-0.74,5.44-3.35c1.31-3.78,3.17-7.36,4.48-11.14c0.94-2.71,2.35-3.67,5.31-3.66
	c22.83,0.14,45.67,0.08,68.5,0.07c3.91,0,4.77-0.62,5.53-4.16c3.22-14.99,6.41-29.98,9.58-44.98c0.79-3.74,0.27-4.38-3.5-4.38
	c-9.17,0-18.35,0.06-27.52,0.04c-22.93-0.04-45.86-0.15-68.79-0.13c-2.36,0-3.61-0.64-4.03-3.05c-0.33-1.91-1.08-3.75-1.58-5.64
	c-0.56-2.11-1.86-3.04-4.05-2.98c-2.93,0.08-5.88-0.19-8.77,0.11C6.47,3.23,5.08,4.2,4.11,5.18C3.77,5.53,4.31,7.3,4.93,7.94
	C6.27,9.3,7.57,8.27,9.11,7.71c2.09-0.76,4.58-0.98,6.78-0.63c0.87,0.14,1.65,2.35,2.06,3.74C23.29,29.1,28.6,47.38,33.77,65.71
	c0.46,1.62,0.27,3.68-0.32,5.28C31.57,76.08,29.37,81.06,27.19,86.32z M103.06,88.01c-4.81-0.01-8.55,3.67-8.57,8.43
	c-0.01,4.76,3.75,8.57,8.47,8.59c4.75,0.02,8.49-3.71,8.52-8.5C111.51,91.66,107.91,88.02,103.06,88.01z M31.67,88.01
	c-4.79,0.02-8.58,3.85-8.51,8.58c0.07,4.54,3.94,8.37,8.47,8.4c4.67,0.03,8.68-3.91,8.65-8.52C40.26,91.68,36.5,87.99,31.67,88.01z
	 M93.88,90.14c-17.67,0-35.22,0-52.84,0c0.19,2.65,1.56,3.24,3.75,3.23c15-0.03,30-0.01,45,0.09
	C92.09,93.47,93.57,92.86,93.88,90.14z"/>
<g>
	
		<linearGradient id="SVGID_1_" gradientUnits="userSpaceOnUse" x1="5.1978" y1="71.3794" x2="125.8197" y2="50.9626" gradientTransform="matrix(1 0 0 -1 0 110)">
		<stop  offset="8.249613e-03" style="stop-color:#E5890B"/>
		<stop  offset="0.0962" style="stop-color:#E38817"/>
		<stop  offset="0.2051" style="stop-color:#DB842A"/>
		<stop  offset="0.3249" style="stop-color:#CE7D40"/>
		<stop  offset="0.4527" style="stop-color:#BB7558"/>
		<stop  offset="0.5868" style="stop-color:#A26A71"/>
		<stop  offset="0.7262" style="stop-color:#815D87"/>
		<stop  offset="0.8674" style="stop-color:#574D99"/>
		<stop  offset="0.8805" style="stop-color:#524C9A"/>
	</linearGradient>
	<path class="st1" d="M122.53,14.73c-9.17,0-18.35,0.06-27.52,0.04c-22.93-0.04-45.86-0.15-68.79-0.13c-2.36,0-3.61-0.64-4.03-3.05
		c-0.33-1.91-1.08-3.75-1.58-5.64c-0.56-2.11-1.86-3.04-4.05-2.98c-2.93,0.08-5.88-0.19-8.77,0.11C6.47,3.23,5.08,4.2,4.11,5.18
		C3.77,5.53,4.31,7.3,4.93,7.94C6.27,9.3,7.57,8.27,9.11,7.71c2.09-0.76,4.58-0.98,6.78-0.63c0.87,0.14,1.65,2.35,2.06,3.74
		C23.29,29.1,28.6,47.38,33.77,65.71c0.46,1.62,0.27,3.68-0.32,5.28c-1.87,5.1-4.08,10.07-6.26,15.33c2.82-0.02,4.54-0.74,5.44-3.35
		c1.31-3.78,3.17-7.36,4.48-11.14c0.94-2.71,2.35-3.67,5.31-3.66c22.83,0.14,45.67,0.08,68.5,0.07c3.91,0,4.77-0.62,5.53-4.16
		c3.22-14.99,6.41-29.98,9.58-44.98C126.82,15.36,126.29,14.73,122.53,14.73z"/>
	
		<linearGradient id="SVGID_2_" gradientUnits="userSpaceOnUse" x1="94.49" y1="13.48" x2="111.4802" y2="13.48" gradientTransform="matrix(1 0 0 -1 0 110)">
		<stop  offset="0" style="stop-color:#E5890B"/>
		<stop  offset="0.1033" style="stop-color:#DE8627"/>
		<stop  offset="0.3104" style="stop-color:#CA7E4E"/>
		<stop  offset="0.6021" style="stop-color:#A8717A"/>
		<stop  offset="0.9644" style="stop-color:#735EA2"/>
		<stop  offset="1" style="stop-color:#6D5CA4"/>
	</linearGradient>
	<path class="st2" d="M103.06,88.01c-4.81-0.01-8.55,3.67-8.57,8.43c-0.01,4.76,3.75,8.57,8.47,8.59c4.75,0.02,8.49-3.71,8.52-8.5
		C111.51,91.66,107.91,88.02,103.06,88.01z"/>
	
		<linearGradient id="SVGID_3_" gradientUnits="userSpaceOnUse" x1="23.159" y1="13.5" x2="40.2802" y2="13.5" gradientTransform="matrix(1 0 0 -1 0 110)">
		<stop  offset="0" style="stop-color:#E5890B"/>
		<stop  offset="0.1033" style="stop-color:#DE8627"/>
		<stop  offset="0.3104" style="stop-color:#CA7E4E"/>
		<stop  offset="0.6021" style="stop-color:#A8717A"/>
		<stop  offset="0.9644" style="stop-color:#735EA2"/>
		<stop  offset="1" style="stop-color:#6D5CA4"/>
	</linearGradient>
	<path class="st3" d="M31.67,88.01c-4.79,0.02-8.58,3.85-8.51,8.58c0.07,4.54,3.94,8.37,8.47,8.4c4.67,0.03,8.68-3.91,8.65-8.52
		C40.26,91.68,36.5,87.99,31.67,88.01z"/>
	
		<linearGradient id="SVGID_4_" gradientUnits="userSpaceOnUse" x1="41.04" y1="18.1999" x2="93.88" y2="18.1999" gradientTransform="matrix(1 0 0 -1 0 110)">
		<stop  offset="0" style="stop-color:#E5890B"/>
		<stop  offset="0.1033" style="stop-color:#DE8627"/>
		<stop  offset="0.3104" style="stop-color:#CA7E4E"/>
		<stop  offset="0.6021" style="stop-color:#A8717A"/>
		<stop  offset="0.9644" style="stop-color:#735EA2"/>
		<stop  offset="1" style="stop-color:#6D5CA4"/>
	</linearGradient>
	<path class="st4" d="M44.8,93.37c15-0.03,30-0.01,45,0.09c2.29,0.01,3.77-0.59,4.08-3.32c-17.67,0-35.22,0-52.84,0
		C41.24,92.79,42.61,93.38,44.8,93.37z"/>
</g>
<g>
	<path d="M322.57,85.05c-3.64-0.9-7.54-1.25-10.87-2.81c-7.69-3.61-10.39-10.34-7.82-18.5c2.37-7.5,7.39-12.93,13.99-17.03
		c4.26-2.65,16.45-0.66,20.64,4.74c7.51,9.7,9.11,19.33-1.61,28.71C332.57,83.94,328.14,85.35,322.57,85.05z M323.57,76
		c3.04-0.86,6.43-1.47,9.52-2.78c4.34-1.84,5.08-5.44,2.19-9.24c-2.83-3.71-6.36-6.62-10.83-8.15c-8.32-2.84-11.09-0.69-13.5,7.35
		c-1.38,4.61,1,9.2,5.48,11.01C318.56,75.04,320.91,75.34,323.57,76z"/>
	<g>
		<path d="M201.17,49.16c-0.08,15.08-12.83,29.31-26.85,30.61c-7.56,0.7-13.48-2.5-17.5-8.97c-6.23-10.02-8.45-29.99,3.97-41.76
			c5.42-5.14,10.91-9.43,18.53-9.05c7.86,0.39,15.75,3.87,18.79,12.4c0.23,0.64,0.47,1.29,0.59,1.96
			C199.59,39.63,200.46,44.9,201.17,49.16z M164.84,46.23L164.84,46.23c0.01,1.66-0.11,3.33,0.03,4.97
			c0.45,5.21,1.41,10.37,5.12,14.31c1.39,1.48,3.73,2.85,5.63,2.85c2.81,0.01,5.66-1.15,8.44-2c3.18-0.98,5-3.38,5.64-6.54
			c1.98-9.76,0.15-18.78-5.55-26.96c-2.02-2.9-5.14-3.65-8.22-3.16c-5.95,0.93-11.44,5.17-11.09,12.44
			C164.89,43.5,164.84,44.86,164.84,46.23z M178.77,73.28c6.32,0.56,13.6-5,14.67-11.13c-2.1,2-4.24,4.43-6.77,6.36
			C184.18,70.4,181.3,71.78,178.77,73.28z M160.68,34.56c3.13-2.54,6.41-5.2,9.78-7.92C165.23,28.11,162.11,30.73,160.68,34.56z"/>
		<path d="M411.37,85.16c-3.89-1.06-8.02-1.59-11.61-3.29c-6.66-3.15-9.4-9.74-7.52-16.9c2.15-8.19,7.19-14.55,14.59-18.18
			c6.13-3.01,12.51-1.14,18.13,2.66c5.86,3.96,9.51,14.83,7.24,21.48C429.12,79.95,421.29,85.09,411.37,85.16z M411.91,76.09
			c3.34-0.95,6.83-1.57,10-2.92c4.23-1.8,5.02-5.03,2.37-8.76c-3.52-4.95-8.25-8.38-14.27-9.43c-2.03-0.35-4.88-0.17-6.3,1.03
			c-3.13,2.64-4.71,6.46-4.19,10.73C400.17,72.23,404.89,75.56,411.91,76.09z"/>
		<path d="M269.47,79.34c-0.94,0.62-2.19,1.45-4.18,2.76c-0.6-5.58-1.44-10.37-1.54-15.18c-0.14-6.23,0.21-12.49,0.54-18.72
			c0.22-4.05,2.41-6.73,6.24-7.9c0.13,1.66,0.25,3.24,0.38,4.89c1.23,0.7,3.17-2.56,3.87,0.47c0.34,1.45-0.09,3.07-0.19,4.93
			c1.21-0.89,2.19-1.85,3.35-2.4c3.4-1.63,6.75-3.59,10.35-4.51c5.41-1.37,7.92,0.45,8.85,5.99c0.76,4.51,1.03,9.1,1.4,13.67
			c0.26,3.19,0.24,6.41,0.55,9.6c0.18,1.83-0.06,3.24-1.73,4.26c-0.73,0.45-1.34,1.13-1.95,1.76c-2.89,2.99-3.49,3.14-6.31,0.76
			c-0.44-0.37-0.34-1.82-0.05-2.59c2.36-6.16,2.77-12.32,0.37-18.56c-0.25-0.64-0.45-1.29-0.74-1.91c-2.29-4.95-4.47-5.56-9.49-3.4
			c-3.63,1.57-5.72,3.61-4.86,7.87c0.95,4.66,1.55,9.39,2.57,14.04c0.58,2.64-1.45,6.85-4.08,6.9
			C271.79,82.1,270.72,80.42,269.47,79.34z"/>
		<path d="M386.63,37.23c0.08,3.73,0.2,7.38-0.85,11.16c-0.76,2.71-3.33,5.46-0.54,8.83c-1.28,1.23-2.53,2.57-3.94,3.73
			c-0.64,0.53-2.05,1.16-2.31,0.91c-0.75-0.71-1.39-1.82-1.51-2.84c-0.16-1.32,0.29-2.69,0.37-4.05c0.27-4.8-5.34-8.65-9.43-6.03
			c-4.22,2.7-7.96,6.2-11.67,9.61c-1.7,1.56-1.49,3.66,0.16,5.49c1.37,1.52,2.56,3.2,3.91,4.73c3.83,4.37,8.82,4.67,13.98,3.58
			c4.23-0.89,8.16-2.57,11.28-5.79c0.84-0.86,1.99-1.41,3-2.11c0.24,0.15,0.48,0.29,0.73,0.44c-0.36,1.08-0.47,2.35-1.13,3.2
			c-5.36,6.95-12.15,12.12-20.52,14.71c-2.1,0.65-5.26-0.09-7.19-1.33c-4.04-2.62-8-5.62-11.25-9.15
			c-4.19-4.55-3.92-9.93-0.28-15.33c6.87-10.2,16.37-15.65,28.72-15.74c2.06-0.02,3.46-0.53,4.7-2.16c0.72-0.94,1.88-1.55,2.84-2.3
			C386,36.94,386.31,37.09,386.63,37.23z"/>
		<path d="M212.86,83.99c-4.62,3.13-5.24,2.81-5.92-2.68c-0.95-7.65-1.93-15.29-2.89-22.93c-0.37-2.96,3.58-10.43,6.33-11.22
			c1.99-0.57,4.22-0.34,6.58-0.48c-0.11,1.71-0.22,3.3-0.35,5.32c1.84-1.43,3.31-2.67,4.88-3.76c5.15-3.58,10.37-3.46,15.56-0.08
			c2.59,1.68,2.95,4.45,3.3,7.18c0.04,0.33-0.13,0.76-0.34,1.04c-1,1.3-2.1,2.54-3.06,3.87c-0.44,0.61-0.63,1.4-1.01,2.3
			c-4.81-6.58-11.15-7.85-17.33-4.47c-1.61,0.88-2.29,1.95-1.84,3.77c0.62,2.55,1.14,5.12,1.7,7.68c0.96,4.38,2.44,8.73,2.6,13.14
			c0.06,1.75-2.8,3.6-4.33,5.4c-1.02-0.87-2.06-1.7-3.03-2.62C213.36,85.13,213.21,84.61,212.86,83.99z"/>
		<path d="M255.58,47.07c0,4.21-0.21,8.12,0.05,12c0.39,5.81,0.87,11.64,1.79,17.39c0.48,3.02-1.06,4.65-2.88,6.19
			c-1.59,1.34-3.48,2.72-5.75,1.39c-0.76-0.44-1.71-1.31-1.78-2.05c-0.63-6.98-1.08-13.97-1.57-20.95c-0.07-0.97,0.05-1.96-0.1-2.92
			c-0.87-5.54,1.87-9.18,6.38-11.64C252.59,46.01,254.17,46.83,255.58,47.07z"/>
		<path d="M246.76,46.96c-0.38-6.13-0.95-11.53,2.74-16.09c1.34-1.65,2.88-4.37,5.44-1.82c1.05,1.05,1.98,3.5,1.46,4.61
			c-1.85,3.97-4.27,7.69-6.64,11.4C249.27,45.82,248.1,46.14,246.76,46.96z"/>
	</g>
</g>
</svg>
